<?xml version="1.0" encoding="UTF-8"?>
<svg width="64" height="64" viewBox="0 0 64 64" xmlns="http://www.w3.org/2000/svg">
  <defs>
    <linearGradient id="bagGrad" x1="0" y1="0" x2="1" y2="1">
      <stop offset="0%" stop-color="#CD853F"/>
      <stop offset="100%" stop-color="#A0522D"/>
    </linearGradient>
  </defs>
  <!-- Fondo círculo -->
  <circle cx="32" cy="32" r="30" fill="#8B4513"/>
  <!-- Bolsa de compras -->
  <path d="M20 26h24c1.7 0 3 1.3 3 3v18c0 2.2-1.8 4-4 4H21c-2.2 0-4-1.8-4-4V29c0-1.7 1.3-3 3-3z" fill="url(#bagGrad)"/>
  <!-- Manija de la bolsa -->
  <path d="M24 26c0-4.4 3.6-8 8-8s8 3.6 8 8" fill="none" stroke="#F5F5DC" stroke-width="3" stroke-linecap="round"/>
  <!-- Huella (logo de mascotas) -->
  <circle cx="32" cy="40" r="6" fill="#2F1B14"/>
  <circle cx="23" cy="36" r="2.8" fill="#2F1B14"/>
  <circle cx="41" cy="36" r="2.8" fill="#2F1B14"/>
  <circle cx="28" cy="31" r="2.4" fill="#2F1B14"/>
  <circle cx="36" cy="31" r="2.4" fill="#2F1B14"/>
</svg>